<?xml version="1.0" encoding="UTF-8" standalone="no"?>
<!-- Uploaded to: SVG Repo, www.svgrepo.com, Generator: SVG Repo Mixer Tools -->

<svg
   width="800px"
   height="800px"
   viewBox="0 0 192 192"
   fill="none"
   version="1.1"
   id="svg1"
   sodipodi:docname="logo-dark.svg"
   inkscape:version="1.4.1 (93de688d07, 2025-03-30)"
   xmlns:inkscape="http://www.inkscape.org/namespaces/inkscape"
   xmlns:sodipodi="http://sodipodi.sourceforge.net/DTD/sodipodi-0.dtd"
   xmlns="http://www.w3.org/2000/svg"
   xmlns:svg="http://www.w3.org/2000/svg">
  <defs
     id="defs1" />
  <sodipodi:namedview
     id="namedview1"
     pagecolor="#505050"
     bordercolor="#eeeeee"
     borderopacity="1"
     inkscape:showpageshadow="0"
     inkscape:pageopacity="0"
     inkscape:pagecheckerboard="0"
     inkscape:deskcolor="#505050"
     inkscape:zoom="0.709375"
     inkscape:cx="405.99119"
     inkscape:cy="488.45815"
     inkscape:window-width="1259"
     inkscape:window-height="1382"
     inkscape:window-x="0"
     inkscape:window-y="0"
     inkscape:window-maximized="1"
     inkscape:current-layer="svg1" />
  <circle
     cx="96"
     cy="96"
     r="74"
     stroke="#000000"
     stroke-width="12"
     id="circle1" />
  <ellipse
     cx="96"
     cy="96"
     stroke="#000000"
     stroke-width="12"
     rx="30"
     ry="74"
     id="ellipse1" />
  <path
     stroke="#000000"
     stroke-linecap="round"
     stroke-linejoin="round"
     stroke-width="12"
     d="M28 72h136M28 120h136"
     id="path1" />
  <path
     style="fill:#ffffff;stroke-width:1.40969"
     d="M 373.56828,731.54202 C 278.93667,724.18258 190.55657,675.05508 133.10273,597.87538 49.339762,485.35371 45.490093,332.15492 123.49877,215.68282 179.56348,131.97452 269.41252,78.323724 369.19423,68.972781 c 22.00487,-2.062163 60.32457,-1.002006 81.20225,2.246549 56.09467,8.728305 112.42523,33.459 157.18061,69.0067 14.40888,11.44449 38.6915,35.79683 51.19796,51.34497 36.61499,45.52006 61.09877,100.79039 70.00562,158.03252 3.24855,20.87768 4.30871,59.19738 2.24654,81.20225 -12.76446,136.20666 -107.85619,250.87888 -239.45,288.75555 -38.2445,11.00793 -78.2684,15.07129 -118.00893,11.9807 z m 40.67633,-51.45552 c 9.09708,-4.53268 20.09221,-15.22794 29.23304,-28.43578 8.7775,-12.68281 22.06732,-40.16366 28.60504,-59.1498 4.36738,-12.68328 14.50893,-50.8851 16.8613,-63.51414 l 0.85337,-4.58149 h -89.48018 c -84.28618,0 -89.47915,0.14319 -89.46241,2.46696 0.0371,5.15723 11.31498,48.29724 16.86013,64.49339 7.83298,22.87834 22.01516,51.46133 32.31804,65.13429 18.71549,24.83733 36.32477,32.49882 54.21167,23.58657 z M 299.08632,648.44529 c -14.76842,-29.77614 -29.6087,-76.39636 -36.2314,-113.81974 l -1.80866,-10.22026 h -58.40385 -58.40385 l 5.9674,10.92511 c 25.86925,47.36134 67.0728,88.57904 114.37657,114.41584 9.51371,5.19629 43.64467,20.1176 44.36629,19.39598 0.14809,-0.14809 -4.29003,-9.46171 -9.8625,-20.69693 z m 228.31245,5.19669 c 16.47073,-8.27785 37.2849,-21.45324 49.84344,-31.55096 22.45722,-18.05675 49.05289,-47.99971 63.77873,-71.80577 7.50683,-12.1357 13.78082,-23.57159 13.78082,-25.11896 0,-0.41855 -25.99673,-0.761 -57.7705,-0.761 h -57.7705 l -0.63548,3.1718 c -11.19116,55.85731 -22.80571,92.24076 -40.24132,126.05901 l -8.12053,15.75064 10.90143,-4.01947 c 5.99577,-2.21072 17.80103,-7.48709 26.23391,-11.72529 z M 253.98021,470.95829 c -0.45186,-2.25928 -1.54426,-19.35109 -2.42758,-37.98181 -1.51899,-32.03892 -0.24167,-86.62643 2.42094,-103.46106 l 0.83611,-5.28635 H 190.5548 126.29992 l -1.51101,5.28635 c -6.85861,23.99516 -10.22521,70.17893 -7.21289,98.94821 1.45109,13.85875 5.98684,39.74736 7.85614,44.84033 0.50449,1.37452 14.80377,1.76212 65.00818,1.76212 h 64.36142 z m 243.4439,-2.58825 c 2.70812,-20.81849 3.88272,-70.10595 2.38565,-100.10476 -0.86885,-17.41058 -1.96215,-34.44558 -2.42953,-37.85557 l -0.84981,-6.19995 -96.72335,0.36208 -96.72337,0.36208 -0.94775,9.163 c -2.24455,21.70066 -2.95446,87.16333 -1.22299,112.77533 0.96968,14.34361 2.05082,26.55506 2.40252,27.13656 0.35171,0.5815 43.97404,1.05727 96.93853,1.05727 h 96.29907 z m 179.14044,-3.52423 c 9.46986,-41.48478 9.41115,-89.34174 -0.15995,-130.39647 l -2.38267,-10.22027 H 610.04612 546.0703 l 1.14987,18.67842 c 1.47116,23.89739 1.48546,90.85221 0.0244,114.18502 l -1.12547,17.97357 h 64.05622 64.05623 z M 264.61336,256.56388 c 8.55512,-41.74963 22.93971,-84.33686 38.01793,-112.55641 8.16058,-15.2729 9.27306,-14.89018 -14.46386,-4.97589 -57.66585,24.08551 -111.60244,73.69534 -138.91164,127.76822 l -4.81361,9.53108 58.13573,-0.36808 58.13575,-0.36809 z m 224.60487,16.56387 c -0.38684,-1.74449 -2.35883,-10.78414 -4.38221,-20.0881 -4.71945,-21.70108 -16.74488,-58.17219 -24.97032,-75.73082 -13.11505,-27.99634 -30.86179,-50.4156 -45.58551,-57.58771 -9.03745,-4.40224 -19.98076,-4.38747 -28.6261,0.0386 -23.29806,11.92781 -46.72354,50.55035 -62.70962,103.39192 -4.7974,15.85769 -12.10747,46.55953 -12.10747,50.85066 0,2.09906 7.72409,2.29722 89.54228,2.29722 h 89.54227 z m 165.58353,2.42676 c 0,-1.76898 -9.33709,-19.09021 -15.15098,-28.10659 -27.79192,-43.10052 -66.78379,-78.34678 -111.38534,-100.68549 -14.84374,-7.43449 -35.56573,-16.1435 -36.40781,-15.30141 -0.25983,0.25983 3.56992,8.69048 8.51055,18.73478 16.7627,34.0785 27.35365,67.47239 37.4233,117.99803 l 1.61546,8.10573 h 57.69741 c 31.73357,0 57.69741,-0.33527 57.69741,-0.74505 z"
     id="path2"
     transform="scale(0.24)" />
</svg>
